<?xml version="1.0" standalone="no"?>
<!DOCTYPE svg PUBLIC "-//W3C//DTD SVG 20010904//EN"
 "http://www.w3.org/TR/2001/REC-SVG-20010904/DTD/svg10.dtd">
<svg version="1.0" xmlns="http://www.w3.org/2000/svg"
 width="700.000000pt" height="700.000000pt" viewBox="0 0 700.000000 700.000000"
 preserveAspectRatio="xMidYMid meet">
<metadata>
Created by potrace 1.14, written by Peter Selinger 2001-2017
</metadata>
<g transform="translate(0.000000,700.000000) scale(0.100000,-0.100000)"
fill="#000000" stroke="none">
<path d="M2390 6986 c-12 -11 -333 -242 -661 -475 -20 -14 -74 -53 -120 -86
-46 -33 -95 -68 -109 -77 -14 -9 -151 -107 -305 -218 -154 -110 -324 -231
-377 -268 -114 -79 -90 -30 -253 -502 -20 -58 -40 -114 -45 -125 -5 -11 -27
-74 -50 -140 -23 -66 -69 -196 -102 -290 -33 -93 -72 -206 -87 -250 -16 -44
-81 -228 -146 -410 -65 -181 -122 -351 -128 -376 -10 -44 -7 -56 47 -210 32
-90 61 -173 66 -184 5 -11 43 -119 85 -240 43 -121 104 -296 137 -390 33 -93
86 -244 118 -335 32 -91 85 -241 118 -335 33 -93 78 -219 99 -279 l39 -108
131 -97 c197 -145 601 -442 748 -551 72 -53 200 -148 285 -210 85 -63 207
-153 270 -200 64 -47 127 -92 140 -101 l24 -16 -18 -49 c-10 -27 -24 -62 -31
-79 -8 -16 -32 -79 -56 -140 -23 -60 -45 -114 -49 -119 -5 -4 -271 -8 -592 -8
-515 0 -585 -2 -600 -15 -23 -21 -23 -65 0 -86 17 -16 208 -17 2539 -17 2429
0 2521 1 2536 18 24 27 21 69 -5 86 -19 12 -110 15 -573 15 -302 0 -564 0
-581 0 -28 1 -34 6 -54 54 -12 28 -28 66 -35 82 -75 170 -109 255 -104 259 8
6 381 281 402 296 19 13 179 131 462 340 50 37 178 131 285 210 469 345 445
325 463 378 23 70 197 564 207 587 4 11 13 34 18 50 49 139 208 591 286 811
53 150 96 275 96 279 0 4 6 21 14 38 8 18 29 74 47 126 38 110 39 110 -39 326
-27 77 -67 187 -87 245 -43 124 -87 250 -120 340 -13 36 -67 189 -120 340 -53
151 -107 304 -120 340 -13 36 -63 175 -109 309 -47 134 -91 250 -97 257 -10
12 -422 309 -724 522 -43 31 -537 384 -570 408 -11 8 -74 53 -140 100 -150
106 -157 112 -210 152 l-44 32 -1093 0 c-930 0 -1096 -2 -1108 -14z m1650
-807 c89 -17 160 -40 160 -50 0 -6 -8 -8 -17 -5 -15 4 -46 11 -93 21 -72 16
-171 40 -190 46 -32 11 63 3 140 -12z m1343 -818 c55 -67 37 -54 -42 29 -44
47 -80 90 -80 95 -1 10 68 -60 122 -124z m311 -2818 c-54 -94 -168 -263 -177
-263 -5 0 2 15 15 33 29 37 128 197 152 245 9 17 21 32 27 32 5 0 -2 -21 -17
-47z m-1199 -1093 c-3 -5 -12 -10 -18 -10 -7 0 -6 4 3 10 19 12 23 12 15 0z
m-1701 -101 c21 -6 46 -12 55 -14 112 -23 217 -48 221 -52 5 -5 -70 4 -113 13
-12 3 -34 7 -48 10 -36 7 -176 52 -164 53 6 0 27 -4 49 -10z m1774 -884 c5 -6
35 -77 67 -160 32 -82 62 -154 67 -160 4 -5 8 -14 8 -20 0 -7 -371 -10 -1211
-8 -666 0 -1212 3 -1215 6 -4 4 9 39 40 112 7 17 32 77 55 135 l41 105 1070 0
c685 0 1073 -4 1078 -10z"/>
</g>
</svg>
