<?xml version="1.0" encoding="utf-8"?>
<!-- Svg Vector Icons : http://www.onlinewebfonts.com/icon -->
<!DOCTYPE svg PUBLIC "-//W3C//DTD SVG 1.1//EN" "http://www.w3.org/Graphics/SVG/1.1/DTD/svg11.dtd">
<svg version="1.1" xmlns="http://www.w3.org/2000/svg" xmlns:xlink="http://www.w3.org/1999/xlink" x="0px" y="0px" viewBox="0 0 1000 1000" enable-background="new 0 0 1000 1000" xml:space="preserve">
<metadata> Svg Vector Icons : http://www.onlinewebfonts.com/icon </metadata>
<g><g transform="translate(0.000000,512.000000) scale(0.100000,-0.100000)"><path d="M2290.1,4172.9l-1186.9-848.1L601.6,1910C325.9,1130.8,100,476.1,100,455c-1.9-36.4,918.9-2670.6,985.9-2825.7c26.8-59.4,201-195.3,1091.2-850c583.9-428.8,1066.3-786.8,1072.1-796.4c5.7-9.6-26.8-112.9-72.8-227.8l-82.3-210.6h-790.7h-792.6l-57.4-57.4c-47.9-49.8-55.5-68.9-45.9-120.6c5.8-34.5,32.6-80.4,61.3-103.4l47.9-44H4999h3482.4l51.7,46c74.7,63.2,74.7,170.4,0,233.6l-51.7,46h-788.8h-788.7l-88.1,218.2l-90,218.2l1077.8,788.8c614.5,449.9,1085.5,807.9,1097,832.8c42.1,91.9,999.3,2816.1,999.3,2844.9c0,15.3-225.9,668.1-503.5,1453.1L8893,3326.7l-1185,846.2L6521,5021H4999h-1522L2290.1,4172.9z M6195.6,4567.2c-197.2-553.3-294.8-857.7-285.3-897.9c17.2-65.1,57.4-93.8,256.5-170.4c352.3-134,677.7-333.1,993.6-603c199.1-170.4,254.6-189.5,336.9-105.3c76.6,74.7,70.8,164.6-15.3,254.6c-91.9,97.6-329.3,283.3-520.7,411.6c-168.5,111-606.9,338.9-654.7,338.9c-13.4,0-24.9,3.8-24.9,9.6c0,9.6,68.9,208.7,243.1,712.2l26.8,78.5l941.9-670.1c518.8-369.5,949.6-677.7,957.2-685.4c9.6-7.7-172.3-141.7-402-296.7c-229.7-155.1-432.7-298.7-449.9-319.7c-59.3-67-40.2-130.2,91.9-331.2c237.4-359.9,421.2-786.8,503.5-1167.8c30.6-134,49.8-181.9,88.1-214.4c55.5-49.8,105.3-55.5,168.5-21.1c101.5,53.6,109.1,114.9,51.7,359.9c-86.1,359.9-239.3,729.4-442.2,1066.3c-80.4,135.9-93.8,166.6-70.8,187.6c13.4,11.5,172.3,122.5,352.2,245l329.3,222.1l38.3-109.1C8783.9,2656.6,9498,631.2,9498,625.4c0-3.8-252.7-7.7-562.9-11.5c-706.4-7.7-647.1,24.9-677.7-375.2c-34.5-428.8-105.3-717.9-266.1-1098.9c-80.4-189.5-86.2-210.6-63.2-264.2c28.7-70.8,114.9-120.6,180-103.4c70.8,17.2,116.8,78.5,191.4,250.8c145.5,340.8,247,744.7,275.7,1087.4l13.4,172.3l457.6,5.7c436.5,3.8,455.6,3.8,448-30.6c-24.9-93.8-807.9-2293.5-821.3-2308.8c-11.5-11.5-189.5,97.7-451.8,275.7c-518.8,352.3-520.7,352.3-654.7,191.4c-281.4-335-578.1-589.6-920.8-788.8c-224-132.1-264.2-214.4-153.2-325.4c80.4-78.5,139.8-67,363.8,70.8c258.4,157,520.7,363.7,725.6,572.4c97.6,101.5,181.9,183.8,187.6,183.8c28.7,0,694.9-465.2,683.5-478.6c-19.1-15.3-1811.1-1328.6-1839.8-1345.9c-9.6-5.7-107.2,206.8-216.3,471c-111,268-220.2,501.6-245,528.4c-51.7,51.7-74.7,49.8-358-23c-352.3-90-679.6-114.9-1123.8-84.2c-224,15.3-225.9,15.3-273.8-32.6c-68.9-68.9-65.1-164.6,7.7-227.8c59.4-47.9,95.7-55.5,461.4-80.4c201-15.3,599.2,17.2,851.9,70.8c105.3,21,202.9,40.2,218.2,42.1c17.2,1.9,82.3-134,183.8-381l158.9-382.9l-1273.1-5.7c-702.6-1.9-1278.8,0-1284.6,5.7c-5.8,3.8,78.5,227.8,187.6,495.9c124.4,310.1,191.4,499.6,183.8,522.6c-21.1,63.2-91.9,112.9-247,168.5c-321.6,114.9-662.4,317.8-985.9,589.6c-216.3,181.9-264.2,199.1-356.1,126.4c-40.2-30.6-49.8-55.5-49.8-118.7c0-70.8,11.5-88.1,111-183.8c254.6-241.2,689.2-526.5,997.4-652.8l149.3-61.3l-157-396.3c-88.1-216.3-162.7-394.4-166.6-394.4c-21,0-1849.3,1357.3-1843.6,1368.8c3.8,7.7,197.2,141.7,428.8,296.7c402,273.8,461.4,325.4,461.4,409.7c0,19.2-51.7,112.9-114.9,210.6c-285.2,432.7-421.2,758.1-543.7,1307.6c-28.7,126.3-180,172.3-269.9,82.3c-61.3-59.3-61.3-118.7,0-369.5c84.2-348.4,227.8-689.2,434.6-1033.8c53.6-88.1,88.1-166.6,80.4-176.1c-72.7-67-683.4-461.4-696.9-448c-13.4,15.3-792.6,2213.1-817.5,2303.1c-9.6,40.2-7.7,40.2,562.9,40.2c696.9,0,645.2-23,666.2,296.7c26.8,430.7,114.9,806,279.5,1186.9c53.6,118.7,72.7,187.6,65.1,222.1c-21.1,97.6-128.3,151.2-222.1,112.9c-141.7-59.4-392.5-819.4-434.6-1317.1l-13.4-166.6l-453.7-5.7c-250.8-1.9-455.6,0-455.6,3.8c0,5.7,698.8,1992.9,807.9,2293.5l19.1,51.7l442.2-294.8c547.5-365.7,532.2-361.8,698.8-157c235.5,287.2,501.6,513.1,873,742.8c95.7,59.3,185.7,128.3,201,155.1c53.6,93.8-28.7,225.9-139.8,225.9c-135.9,0-687.3-386.7-991.7-694.9L2225,2758.1l-344.6,235.5c-191.4,130.2-340.8,241.2-331.2,247c40.2,36.4,1872.3,1342,1885.7,1345.8c9.6,1.9,95.7-212.5,193.4-478.6c97.6-266.1,187.6-495.8,201-511.1c44-51.7,114.9-51.7,331.2,5.7c384.8,101.5,754.3,130.2,1206.1,91.9c183.8-15.3,187.6-15.3,235.5,32.5c78.5,80.4,59.3,202.9-40.2,256.5c-70.8,38.3-463.3,67-723.7,53.6c-231.7-11.5-595.4-65.1-731.3-105.3l-61.3-17.2l-135.9,377.1c-74.7,206.8-135.9,381-135.9,390.5c0,7.7,555.2,13.4,1234.8,13.4h1234.8L6195.6,4567.2z M6484.6-4292.8c36.4-84.2,65.1-155.1,65.1-157c0-3.8-698.8-5.7-1552.6-5.7c-853.8,0-1548.8,7.7-1544.9,15.3c3.8,9.6,30.6,82.3,63.2,162.7l57.4,147.4l1424.3-3.8l1424.4-5.7L6484.6-4292.8z"/><path d="M4893.7,3173.5c-78.5-76.6-63.2-201,30.6-248.9c80.4-42.1,128.3-34.5,191.4,26.8c68.9,68.9,70.8,134,5.7,210.6C5058.4,3238.6,4962.7,3244.4,4893.7,3173.5z"/><path d="M4242.8,2522.6c-99.6-97.6-30.6-277.6,103.4-277.6c88.1,0,162.7,74.7,162.7,162.7C4508.9,2549.4,4340.5,2622.2,4242.8,2522.6z"/><path d="M5544.7,2522.6C5445.1,2425,5514,2245,5650,2245c76.6,0,172.3,90,172.3,162.7c0,30.6-23,72.7-55.5,107.2C5694,2585.8,5609.7,2589.6,5544.7,2522.6z"/><path d="M3590,1873.6c-157-134,45.9-369.5,206.8-241.2c122.5,95.7,42.1,287.2-118.7,287.2C3658.9,1919.6,3618.7,1898.5,3590,1873.6z"/><path d="M4932,1896.6c-149.3-80.4-93.8-302.5,74.7-302.5c49.8,0,76.6,13.4,114.9,59.4c65.1,76.6,63.2,141.7-5.7,210.6C5056.5,1921.5,4997.1,1933,4932,1896.6z"/><path d="M6203.2,1864.1c-70.8-72.8-74.7-157-7.7-222.1c97.6-99.6,277.6-30.6,277.6,105.3c0,76.6-90,172.3-162.7,172.3C6279.8,1919.6,6237.7,1896.6,6203.2,1864.1z"/><path d="M2969.7,1243.8c-101.5-51.7-118.7-183.8-34.5-262.3c91.9-86.1,264.2-17.2,264.2,105.3c0,90-15.3,122.5-78.5,153.2C3055.9,1274.4,3031,1274.4,2969.7,1243.8z"/><path d="M4281.1,1245.7c-97.6-51.7-118.7-187.6-42.1-260.4c128.3-120.6,333.1,32.5,252.7,187.6C4447.7,1257.2,4357.7,1287.8,4281.1,1245.7z"/><path d="M5558.1,1220.8c-147.4-124.4-5.8-335,178-266.1c36.4,15.3,86.2,105.3,86.2,158.9c0,55.5-76.6,134-145.5,147.4C5630.8,1268.7,5605.9,1261,5558.1,1220.8z"/><path d="M6852.2,1211.2c-49.8-51.7-57.4-68.9-47.9-130.2c15.3-88.1,72.7-137.8,160.8-137.8c149.3,0,214.4,178,99.6,275.7C6986.2,1284,6925,1282.1,6852.2,1211.2z"/><path d="M2324.6,598.6c-67-28.7-107.2-105.3-93.8-181.9c15.3-80.4,74.7-124.4,166.6-124.4c88.1,0,151.2,68.9,151.2,162.7C2548.6,558.4,2422.2,638.8,2324.6,598.6z"/><path d="M3628.3,591c-155.1-67-99.5-298.7,68.9-298.7c91.9,0,153.2,63.2,153.2,158.9c0,67-51.7,147.4-93.8,147.4c-9.6,0-28.7,3.8-44,9.6C3699.1,612,3660.9,604.4,3628.3,591z"/><path d="M4960.8,604.4c-168.5-61.3-143.6-312,32.5-312c86.2,0,118.7,17.2,151.2,80.4c42.1,80.4,19.1,162.7-55.5,208.7C5025.8,619.7,5008.6,621.6,4960.8,604.4z"/><path d="M6251.1,598.6c-105.3-42.1-134-181.9-55.5-258.4c97.6-99.6,277.6-30.6,277.6,103.4C6473.2,552.7,6346.8,638.8,6251.1,598.6z"/><path d="M7545.2,592.9c-153.2-78.5-97.6-300.6,72.7-300.6c95.7,0,157,61.3,157,155.1C7775,564.2,7644.8,644.6,7545.2,592.9z"/><path d="M2931.5-90.6c-84.2-84.2-55.5-225.9,57.4-264.2c158.9-55.5,287.2,147.4,166.6,260.4C3098-38.9,2985.1-37,2931.5-90.6z"/><path d="M4237.1-96.3c-82.3-86.1-40.2-225.9,78.5-268c57.4-21.1,157,32.5,183.8,99.6c30.6,68.9,1.9,162.7-57.4,193.3C4378.8-37,4281.1-48.5,4237.1-96.3z"/><path d="M5537-102.1c-53.6-67-51.7-145.5,5.7-210.6c93.8-111,279.5-38.3,279.5,109.1C5822.3-65.7,5621.2,5.1,5537-102.1z"/><path d="M6846.5-100.2c-61.3-59.3-61.3-143.6-1.9-212.5c134-158.9,367.6,45.9,239.3,210.6C7030.3-33.1,6913.5-31.3,6846.5-100.2z"/><path d="M3588.1-745.3c-57.4-65.1-65.1-105.3-36.4-176.1c70.8-168.5,308.2-112.9,302.5,70.8C3850.4-720.4,3674.2-651.5,3588.1-745.3z"/><path d="M4888-747.2c-26.8-28.7-42.1-68.9-42.1-113c0-137.8,166.6-212.5,269.9-118.7c72.7,67,53.6,231.7-30.6,264.2C5016.3-689.8,4928.2-703.2,4888-747.2z"/><path d="M6195.6-751.1c-99.6-97.6-26.8-266.1,114.9-266.1c55.5,0,82.3,13.4,116.8,53.6c93.8,107.2,24.9,260.4-116.8,260.4C6262.6-703.2,6226.2-718.5,6195.6-751.1z"/><path d="M4244.8-1394.3c-49.8-40.2-67-124.4-38.3-199.1c15.3-36.4,105.3-86.2,158.9-86.2c68.9,0,143.6,82.3,143.6,158.9C4508.9-1377.1,4357.7-1304.3,4244.8-1394.3z"/><path d="M5544.7-1402c-90-88.1-46-239.3,80.4-269.9c101.5-26.8,216.3,88,189.5,189.5C5784-1354.1,5634.6-1310.1,5544.7-1402z"/><path d="M4893.7-2052.9c-99.6-97.6-30.6-277.6,105.3-277.6c76.6,0,172.3,90,172.3,162.7c0,30.6-23,72.7-55.5,107.2C5043.1-1989.7,4958.8-1985.9,4893.7-2052.9z"/></g></g>
</svg>